<svg xmlns="http://www.w3.org/2000/svg" data-name="Your Icon" viewBox="0 0 100 125" x="0px" y="0px"><path d="m91.09,24.24l-6.11-6.11c-.5-.49-1.15-.74-1.8-.74s-1.3.25-1.8.74L15.45,84.07c-1,.99-1,2.61,0,3.61l6.1,6.1c.49.49,1.14.75,1.8.75s1.3-.26,1.8-.75l54.36-54.37,11.58-11.56c.99-1,.99-2.62,0-3.61Zm-1.6,2.01l-9.98,9.97-6.51-6.51,9.97-9.98c.07-.05.13-.08.21-.08s.15.03.2.08l6.11,6.11s.08.12.08.2-.03.15-.08.21Z"/><path d="m21.71,45.16l3.54,8.23c.28.65,1.21.66,1.49,0l3.66-8.38c.88-2.03,2.5-3.65,4.53-4.53l8.39-3.66c.65-.28.65-1.21,0-1.49l-8.39-3.66c-2.03-.88-3.65-2.5-4.53-4.53l-3.66-8.39c-.28-.65-1.21-.65-1.49,0l-3.66,8.39c-.88,2.03-2.5,3.65-4.53,4.53l-8.4,3.67c-.65.28-.65,1.2,0,1.49l8.55,3.78c2.02.89,3.63,2.52,4.51,4.55Z"/><path d="m42.85,15.33l4.54,2.01c1.07.47,1.93,1.34,2.39,2.42l1.88,4.37c.15.35.64.35.79,0l1.94-4.45c.47-1.08,1.33-1.94,2.41-2.41l4.45-1.94c.35-.15.35-.64,0-.79l-4.45-1.94c-1.08-.47-1.94-1.33-2.41-2.41l-1.94-4.45c-.15-.35-.64-.35-.79,0l-1.94,4.45c-.47,1.08-1.33,1.94-2.41,2.41l-4.46,1.95c-.34.15-.35.64,0,.79Z"/><path d="m83.44,72.27l-4.73-2.06c-1.14-.5-2.05-1.41-2.55-2.55l-2.06-4.73c-.16-.37-.68-.37-.84,0l-2.06,4.73c-.5,1.14-1.41,2.05-2.55,2.55l-4.73,2.07c-.37.16-.37.68,0,.84l4.82,2.13c1.14.5,2.05,1.42,2.54,2.57l2,4.64c.16.37.68.37.84,0l2.06-4.72c.5-1.14,1.41-2.05,2.55-2.55l4.73-2.06c.37-.16.37-.68,0-.84Z"/><text x="0" y="115" fill="#000000" font-size="5px" font-weight="bold" font-family="'Helvetica Neue', Helvetica, Arial-Unicode, Arial, Sans-serif">Created by emiliolonardo_design</text><text x="0" y="120" fill="#000000" font-size="5px" font-weight="bold" font-family="'Helvetica Neue', Helvetica, Arial-Unicode, Arial, Sans-serif">from the Noun Project</text></svg>