<?xml version="1.0" encoding="UTF-8" standalone="no"?>
<svg
   xmlns="http://www.w3.org/2000/svg"
   width="24"
   height="24"
   viewBox="0 0 24 24"
   fill="currentColor"
   stroke="currentColor">
  <g transform="matrix(0.25,0,0,0.25,1,0)">
    <path
       fill="currentColor"
       d="m 26.820112,31.9802 c 0.23438,0 0.46875,-0.08984 0.64844,-0.26953 l 1.0469,-1.0469 c 0.35938,-0.35938 0.35938,-0.9375 0,-1.293 -0.35938,-0.35938 -0.9375,-0.35938 -1.293,0 l -1.0469,1.0469 c -0.35938,0.35938 -0.35938,0.9375 0,1.293 0.17969,0.17969 0.41406,0.26953 0.64844,0.26953 z" />
    <path
       fill="currentColor"
       d="m 30.785112,37.9722 c 0.50391,0 0.91406,-0.41016 0.91406,-0.91406 0,-0.50391 -0.41016,-0.91406 -0.91406,-0.91406 h -1.4805 c -0.50391,0 -0.91406,0.41016 -0.91406,0.91406 0,0.50391 0.41016,0.91406 0.91406,0.91406 z" />
    <path
       fill="currentColor"
       d="m 21.742112,28.5822 v -1.4805 c 0,-0.50391 -0.41016,-0.91406 -0.91406,-0.91406 -0.5039,0 -0.91406,0.41016 -0.91406,0.91406 v 1.4805 c 0,0.50391 0.41016,0.91406 0.91406,0.91406 0.5039,0 0.91406,-0.41016 0.91406,-0.91406 z" />
    <path
       fill="currentColor"
       d="m 27.219112,44.7462 c 0.17969,0.17969 0.41406,0.26953 0.64844,0.26953 0.23437,0 0.46875,-0.08984 0.64844,-0.26953 0.35938,-0.35938 0.35938,-0.9375 0,-1.293 l -1.0469,-1.0469 c -0.35938,-0.35938 -0.9375,-0.35938 -1.293,0 -0.35938,0.35938 -0.35938,0.9375 0,1.293 l 1.0469,1.0469 z" />
    <path
       fill="currentColor"
       d="m 19.910112,45.5352 v 1.4805 c 0,0.50391 0.41016,0.91406 0.91406,0.91406 0.50391,0 0.91406,-0.41016 0.91406,-0.91406 v -1.4805 c 0,-0.50391 -0.41016,-0.91406 -0.91406,-0.91406 -0.50391,0 -0.91406,0.41016 -0.91406,0.91406 z" />
    <path
       fill="currentColor"
       d="m 13.785112,45.0152 c 0.23438,0 0.46875,-0.08984 0.64844,-0.26953 l 1.0469,-1.0469 c 0.35938,-0.35937 0.35938,-0.9375 0,-1.293 -0.35938,-0.35938 -0.9375,-0.35938 -1.293,0 l -1.0469,1.0469 c -0.35938,0.35938 -0.35938,0.9375 0,1.293 0.17969,0.17969 0.41406,0.26953 0.64844,0.26953 z" />
    <path
       fill="currentColor"
       d="m 25.906112,37.0582 c 0,-2.8008 -2.2773,-5.0781 -5.0781,-5.0781 -2.8008,0 -5.0781,2.2773 -5.0781,5.0781 0,2.8008 2.2773,5.0781 5.0781,5.0781 2.8008,0 5.0781,-2.2773 5.0781,-5.0781 z" />
    <path
       fill="currentColor"
       d="m 12.348112,36.1402 h -1.4805 c -0.50391,0 -0.9140598,0.41016 -0.9140598,0.91406 0,0.50391 0.4101598,0.91406 0.9140598,0.91406 h 1.4805 c 0.50391,0 0.91406,-0.41016 0.91406,-0.91406 0,-0.50391 -0.41016,-0.91406 -0.91406,-0.91406 z" />
    <path
       fill="currentColor"
       d="m 15.480112,30.4182 -1.0469,-1.0469 c -0.35938,-0.35938 -0.9375,-0.35938 -1.293,0 -0.35938,0.35937 -0.35938,0.9375 0,1.293 l 1.0469,1.0469 c 0.17969,0.17969 0.41406,0.26953 0.64844,0.26953 0.23437,0 0.46875,-0.08984 0.64844,-0.26953 0.35938,-0.35938 0.35938,-0.9375 0,-1.293 z" />
    <path
       fill="currentColor"
       d="m 72.238112,35.0002 c -0.03516,0.0039 -0.07422,0.0039 -0.10938,0.0039 h -0.0078 c -0.47266,0 -0.85547,0.38281 -0.85547,0.85547 v 34.496 l -18.801,-25.898 c -0.18359,-0.21094 -0.4375,-0.32812 -0.72656,-0.3125 -0.27734,0.01172 -0.53516,0.14844 -0.69922,0.37109 l -17.062,23.141 -18.535,-16.074 c -0.35156,-0.30859 -0.88281,-0.29688 -1.2266,0.02344 l -17.3789998,20.5 v -49.305 c 0,-0.48047 0.39062,-0.87109 0.87109,-0.87109 H 44.180172 c 1.0391,0 1.3164,-1.4531 0.34375,-1.8164 l -0.03516,-0.01563 -47.0469998,-0.0039 c -1.3477,0 -2.4414,1.0938 -2.4414,2.4414 v 51.637 0.02734 c -0.023438,1.3477 1.0938,2.4375 2.4414,2.4375 H 70.652762 c 1.3477,0 2.4414,-1.0938 2.4414,-2.4414 v -38.387 c 0,-0.46484 -0.39062,-0.83984 -0.85547,-0.80859 z" />
    <path
       fill="currentColor"
       d="m 55.543112,4.4532 c 0,-3.9922 3.2344,-7.2266 7.2266,-7.2266 -3.9922,0 -7.2266,-3.2344 -7.2266,-7.2266 0,3.9922 -3.2344,7.2266 -7.2266,7.2266 3.9922,0 7.2266,3.2344 7.2266,7.2266 z" />
    <path
       fill="currentColor"
       d="m 82.066112,21.2222 c 0,3.9922 -3.2344,7.2266 -7.2266,7.2266 3.9922,0 7.2266,3.2344 7.2266,7.2266 0,-3.9922 3.2344,-7.2266 7.2266,-7.2266 -3.9922,0 -7.2266,-3.2344 -7.2266,-7.2266 z" />
    <path
       fill="currentColor"
       d="m 54.082112,17.9492 c 0,6.1211 -4.9609,11.082 -11.082,11.082 6.1211,0 11.082,4.9609 11.082,11.082 0,-6.1211 4.9609,-11.082 11.082,-11.082 -6.1211,0 -11.082,-4.9609 -11.082,-11.082 z" />
    <path
       fill="currentColor"
       d="m 69.555112,32.4022 c 0,-11.293 9.1562,-20.445 20.445,-20.445 -11.293,0 -20.445,-9.1562 -20.445,-20.445 0,11.293 -9.1562,20.445 -20.445,20.445 11.293,0 20.445,9.1562 20.445,20.445 z" />
  </g>
</svg> 