<?xml version="1.0" encoding="UTF-8" standalone="no"?>
<svg
   width="242.3186"
   height="60"
   viewBox="0 0 242.3186 60"
   version="1.1"
   id="svg5"
   sodipodi:docname="ai_assisted_button.svg"
   inkscape:version="1.4 (86a8ad7, 2024-10-11)"
   xmlns:inkscape="http://www.inkscape.org/namespaces/inkscape"
   xmlns:sodipodi="http://sodipodi.sourceforge.net/DTD/sodipodi-0.dtd"
   xmlns="http://www.w3.org/2000/svg"
   xmlns:svg="http://www.w3.org/2000/svg">
  <defs
     id="defs5" />
  <sodipodi:namedview
     id="namedview5"
     pagecolor="#ffffff"
     bordercolor="#000000"
     borderopacity="0.25"
     inkscape:showpageshadow="2"
     inkscape:pageopacity="0.0"
     inkscape:pagecheckerboard="true"
     inkscape:deskcolor="#d1d1d1"
     inkscape:zoom="12.68"
     inkscape:cx="111.55363"
     inkscape:cy="29.810726"
     inkscape:window-width="3840"
     inkscape:window-height="2050"
     inkscape:window-x="2508"
     inkscape:window-y="963"
     inkscape:window-maximized="1"
     inkscape:current-layer="svg5" />
  <!-- Button background -->
  <rect
     x="1.0488451"
     y="1.0488451"
     width="240.22092"
     height="57.902309"
     rx="8.8154469"
     ry="7.9865255"
     fill="#ffffff"
     stroke="#000000"
     stroke-width="2.09769"
     id="rect1"
     style="stroke:#045b77;stroke-opacity:1;fill:#ffffff;fill-opacity:1" />
  <!-- Text -->
  <text
     x="5.9643135"
     y="41.044487"
     font-family="Arial, sans-serif"
     font-size="34.0157px"
     fill="#000000"
     id="text1"
     style="stroke-width:3.09234;fill:#045b77;fill-opacity:1">AI Assisted</text>
  <!-- Imported SVG icon -->
  <g
     transform="matrix(4.373688,0,0,3.6579336,172.47545,-0.21456863)"
     id="g5"
     style="fill:#045b77;fill-opacity:1">
    <!-- ai magic wand by emiliolonardo_design from Noun Project (CC BY 3.0) -->
    <g
       transform="scale(0.16)"
       id="g4"
       style="fill:#045b77;fill-opacity:1">
      <path
         d="m 91.09,24.24 -6.11,-6.11 c -0.5,-0.49 -1.15,-0.74 -1.8,-0.74 -0.65,0 -1.3,0.25 -1.8,0.74 L 15.45,84.07 c -1,0.99 -1,2.61 0,3.61 l 6.1,6.1 c 0.49,0.49 1.14,0.75 1.8,0.75 0.66,0 1.3,-0.26 1.8,-0.75 L 79.51,39.41 91.09,27.85 c 0.99,-1 0.99,-2.62 0,-3.61 z m -1.6,2.01 -9.98,9.97 -6.51,-6.51 9.97,-9.98 c 0.07,-0.05 0.13,-0.08 0.21,-0.08 0.08,0 0.15,0.03 0.2,0.08 l 6.11,6.11 c 0,0 0.08,0.12 0.08,0.2 0,0.08 -0.03,0.15 -0.08,0.21 z"
         id="path1"
         style="fill:#045b77;fill-opacity:1" />
      <path
         d="m 21.71,45.16 3.54,8.23 c 0.28,0.65 1.21,0.66 1.49,0 l 3.66,-8.38 c 0.88,-2.03 2.5,-3.65 4.53,-4.53 l 8.39,-3.66 c 0.65,-0.28 0.65,-1.21 0,-1.49 L 34.93,31.67 C 32.9,30.79 31.28,29.17 30.4,27.14 l -3.66,-8.39 c -0.28,-0.65 -1.21,-0.65 -1.49,0 l -3.66,8.39 c -0.88,2.03 -2.5,3.65 -4.53,4.53 l -8.4,3.67 c -0.65,0.28 -0.65,1.2 0,1.49 l 8.55,3.78 c 2.02,0.89 3.63,2.52 4.51,4.55 z"
         id="path2"
         style="fill:#045b77;fill-opacity:1" />
      <path
         d="m 42.85,15.33 4.54,2.01 c 1.07,0.47 1.93,1.34 2.39,2.42 l 1.88,4.37 c 0.15,0.35 0.64,0.35 0.79,0 l 1.94,-4.45 c 0.47,-1.08 1.33,-1.94 2.41,-2.41 l 4.45,-1.94 c 0.35,-0.15 0.35,-0.64 0,-0.79 L 56.8,12.6 C 55.72,12.13 54.86,11.27 54.39,10.19 L 52.45,5.74 c -0.15,-0.35 -0.64,-0.35 -0.79,0 l -1.94,4.45 c -0.47,1.08 -1.33,1.94 -2.41,2.41 l -4.46,1.95 c -0.34,0.15 -0.35,0.64 0,0.79 z"
         id="path3"
         style="fill:#045b77;fill-opacity:1" />
      <path
         d="M 83.44,72.27 78.71,70.21 C 77.57,69.71 76.66,68.8 76.16,67.66 L 74.1,62.93 c -0.16,-0.37 -0.68,-0.37 -0.84,0 l -2.06,4.73 c -0.5,1.14 -1.41,2.05 -2.55,2.55 l -4.73,2.07 c -0.37,0.16 -0.37,0.68 0,0.84 l 4.82,2.13 c 1.14,0.5 2.05,1.42 2.54,2.57 l 2,4.64 c 0.16,0.37 0.68,0.37 0.84,0 l 2.06,-4.72 c 0.5,-1.14 1.41,-2.05 2.55,-2.55 l 4.73,-2.06 c 0.37,-0.16 0.37,-0.68 0,-0.84 z"
         id="path4"
         style="fill:#045b77;fill-opacity:1" />
    </g>
  </g>
</svg>
